<?xml version="1.0" encoding="UTF-8" standalone="no"?>
<!-- Created with Inkscape (http://www.inkscape.org/) -->

<svg
   xmlns:dc="http://purl.org/dc/elements/1.1/"
   xmlns:cc="http://creativecommons.org/ns#"
   xmlns:rdf="http://www.w3.org/1999/02/22-rdf-syntax-ns#"
   xmlns:svg="http://www.w3.org/2000/svg"
   xmlns="http://www.w3.org/2000/svg"
   xmlns:sodipodi="http://sodipodi.sourceforge.net/DTD/sodipodi-0.dtd"
   xmlns:inkscape="http://www.inkscape.org/namespaces/inkscape"
   version="1.1"
   id="svg45"
   width="1127"
   height="1127"
   viewBox="0 0 1127 1127"
   sodipodi:docname="safari-pinned-tab.svg"
   inkscape:version="0.92.1 unknown">
  <metadata
     id="metadata51">
    <rdf:RDF>
      <cc:Work
         rdf:about="">
        <dc:format>image/svg+xml</dc:format>
        <dc:type
           rdf:resource="http://purl.org/dc/dcmitype/StillImage" />
        <dc:title></dc:title>
      </cc:Work>
    </rdf:RDF>
  </metadata>
  <defs
     id="defs49" />
  <sodipodi:namedview
     pagecolor="#ffffff"
     bordercolor="#666666"
     borderopacity="1"
     objecttolerance="10"
     gridtolerance="10"
     guidetolerance="10"
     inkscape:pageopacity="0"
     inkscape:pageshadow="2"
     inkscape:window-width="1280"
     inkscape:window-height="696"
     id="namedview47"
     showgrid="false"
     inkscape:pagecheckerboard="true"
     inkscape:zoom="0.20629991"
     inkscape:cx="841.74861"
     inkscape:cy="567.74891"
     inkscape:window-x="0"
     inkscape:window-y="24"
     inkscape:window-maximized="1"
     inkscape:current-layer="svg45" />
  <path
     style="fill:#000000"
     d="M 0,563.61657 V 0 H 563.50004 1127 V 563.49999 1127 h -3.0795 c -2.4429,0 -60.2077,-38.652 -279.47356,-187.00336 L 568.05294,752.99329 286.27644,939.64575 C 131.2994,1042.3046 3.4875,1126.5086 2.25,1126.7657 L 0,1127.2332 Z m 399.00004,44.8592 c 48.8234,-5.4428 85.131,-29.66388 112.8254,-75.26671 11.0349,-18.17048 15.2148,-27.10722 19.9758,-42.70907 12.2818,-40.2476 16.3441,-59.5057 19.1845,-90.94928 0.5937,-6.57211 1.2244,-12.09419 1.4015,-12.2713 0.1771,-0.1771 6.3084,6.10008 13.625,13.94929 7.3167,7.84921 16.7361,17.87129 20.932,22.27129 4.196,4.4 18.2412,19.25 31.2117,33 37.9305,40.21004 46.8243,48.32192 65.2574,59.52041 9.048,5.49688 18.6924,9.38543 31.5867,12.73557 9.5909,2.49189 12.1016,2.72876 29,2.73605 20.4417,0.009 25.7315,-0.91671 38.2918,-6.69965 11.7836,-5.42531 20.7836,-17.13776 26.6981,-34.74446 2.5347,-7.54544 3.9425,-25.07525 2.8421,-35.39025 -1.3745,-12.88392 -8.7317,-24.55278 -19.0285,-30.17984 -4.5979,-2.5127 -6.3897,-2.90362 -13.4674,-2.93808 -7.3554,-0.0358 -8.4293,0.20779 -10.845,2.46025 -3.0693,2.86194 -5.4911,7.10676 -5.4911,9.62465 0,1.50579 0.2908,1.45074 2.298,-0.43495 3.513,-3.30022 7.5457,-3.61839 12.1554,-0.95903 15.2276,8.78486 16.8234,30.97215 3.6089,50.1787 -2.2624,3.28832 -4.7987,5.3201 -9.5784,7.67312 l -6.5011,3.20049 -13.2414,-0.51062 c -11.7266,-0.45221 -14.4427,-0.91432 -23.7414,-4.03944 -18.3101,-6.15362 -37.7035,-18.65639 -55.2835,-35.6408 -13.588,-13.12774 -22.3803,-24.62922 -28.7371,-37.59212 -6.511,-13.27739 -7.2649,-17.05422 -7.2854,-36.5 -0.015,-14.06757 0.4459,-19.15356 3.1257,-34.5 4.312,-24.69322 8.7152,-43.4329 14.803,-63 5.7649,-18.5292 18.4353,-41.82735 33.4459,-61.5 6.7577,-8.85657 28.3817,-30.28634 35.2439,-34.92734 7.3086,-4.94296 17.1534,-9.06684 25.4213,-10.64875 9.9323,-1.90036 13.909,-1.76882 19.2087,0.63536 7.9842,3.622 12.6747,8.36169 17.058,17.23662 7.2213,14.62108 7.358,25.39082 0.4996,39.35583 -4.0451,8.23663 -8.6833,12.78196 -14.695,14.40075 -7.7691,2.09201 -15.7642,-0.6631 -15.8369,-5.45746 -0.031,-2.05714 -0.058,-2.05992 -1.5,-0.15388 -1.9891,2.62975 -1.8402,5.43663 0.4913,9.26032 2.9692,4.86962 7.283,6.63906 16.2223,6.65407 6.7207,0.0113 8.4932,-0.39892 14.1665,-3.27852 8.3686,-4.24769 17.5574,-13.46605 22.1672,-22.23852 8.8324,-16.80813 8.3874,-39.07681 -1.175,-58.79492 -10.1243,-20.87659 -24.7156,-28.52428 -54.3405,-28.48122 -18.4523,0.0268 -30.1333,3.09329 -47.9468,12.58697 -13.607,7.25185 -22.6799,14.35808 -38.6697,30.28751 -13.7966,13.74464 -25.7671,28.55619 -32.8613,40.66057 -9.6915,16.53595 -21.1738,45.83067 -27.0501,69.01247 -2.8706,11.32454 -7.1915,34.50914 -10.5589,56.6555 -1.2766,8.39595 -2.6485,15.14595 -3.0487,15 -0.4002,-0.14595 -8.569,-7.4173 -18.1529,-16.15857 l -17.4252,-15.8932 -0.6212,-10.15184 c -1.4146,-23.1194 -6.04,-46.88659 -12.1857,-62.61422 -14.8921,-38.11066 -31.5033,-64.83377 -50.0248,-80.4769 -27.3546,-23.1036 -50.4273,-34.16996 -79.2381,-38.00506 -21.5648,-2.87056 -33.4469,-1.57435 -47.0962,5.13773 -11.0678,5.44258 -22.752,16.03851 -25.9738,23.55451 -9.6606,22.53726 1.6868,45.89957 22.4397,46.19955 4.1989,0.0607 5.8537,-0.45562 8.895,-2.77531 4.0929,-3.12182 7.4623,-9.42279 7.4967,-14.01914 l 0.022,-2.93709 -2.8047,2.68709 c -7.3198,7.01282 -14.8108,-1.1757 -10.7656,-11.76799 1.864,-4.88095 7.9605,-10.97434 13.1486,-13.14209 2.1563,-0.90097 7.1068,-1.40283 13.838,-1.40283 8.4895,0 12.0575,0.49372 18.7821,2.59901 11.8927,3.7233 21.2691,7.96234 29.3016,13.24713 8.9227,5.8705 31.2905,28.23642 38.6572,38.65386 11.8119,16.7036 23.3031,41.98966 28.3085,62.29181 1.5312,6.2105 2.5663,11.50948 2.3003,11.7755 -0.266,0.26602 -3.3597,-1.1458 -6.8748,-3.13739 -27.0006,-15.29778 -55.1926,-22.22399 -80.1465,-19.69032 -28.4332,2.88695 -45.0465,9.72235 -61.1018,25.1399 -11.8302,11.3602 -18.5308,21.83058 -23.4356,36.6205 -5.6567,17.05721 -7.6481,37.60585 -5.1848,53.5 2.245,14.48591 14.1406,31.07879 26.2049,36.55261 5.0484,2.29053 7.7364,2.85588 13.7726,2.89669 8.8151,0.0596 14.1862,-2.18998 17.75,-7.43417 3.7554,-5.52608 2.6804,-15.92329 -2.0525,-19.85123 -1.2017,-0.99729 -1.5181,-0.44806 -1.9501,3.3851 -0.7064,6.26662 -3.799,9.45219 -9.1717,9.44726 -5.0758,-0.005 -9.9374,-2.87386 -12.203,-7.20204 -2.4792,-4.73608 -2.9567,-17.62528 -0.9675,-26.11327 3.3857,-14.44693 13.0071,-30.24962 22.7894,-37.43052 6.0129,-4.41395 10.1073,-6.60136 17.3054,-9.24543 13.6233,-5.00421 16.4166,-5.44765 34.5,-5.47679 16.851,-0.0272 17.9241,0.0939 28.9362,3.26503 15.3814,4.42935 26.9418,10.1987 33.7453,16.84095 l 5.43,5.30144 -0.6117,11.28218 c -2.9341,54.11477 -12.6718,90.99091 -34.6671,131.28219 -16.3139,29.88404 -28.7892,44.05157 -52.8327,59.99919 -17.8936,11.86843 -31.3966,15.47177 -50.5668,13.49392 -13.9696,-1.44129 -20.6217,-4.61481 -27.5919,-13.16324 -5.3038,-6.50483 -6.0375,-8.42543 -6.5861,-17.23951 -0.9094,-14.61354 2.8519,-24.37648 11.6848,-30.32895 6.1617,-4.15235 14.1757,-2.35217 12.5354,2.81583 -1.266,3.98909 1.3025,1.07104 3.0232,-3.43448 1.5057,-3.94262 1.5161,-4.67169 0.1147,-8.02565 -5.4952,-13.15206 -31.3263,-4.43363 -42.2893,14.2734 -5.9882,10.21797 -8.0033,29.79986 -4.8732,47.35545 1.5241,8.54817 3.5452,12.47896 10.7524,20.91227 13.7164,16.0497 36.7286,21.44988 73.7968,17.31755 z"
     id="path55"
     inkscape:connector-curvature="0" />
</svg>
